<svg width="18" height="18" viewBox="0 0 18 18" fill="none" xmlns="http://www.w3.org/2000/svg">
<path d="M9.00184 4.76961C6.66074 4.76961 4.77239 6.65837 4.77239 9C4.77239 11.3416 6.66074 13.2304 9.00184 13.2304C11.3429 13.2304 13.2313 11.3416 13.2313 9C13.2313 6.65837 11.3429 4.76961 9.00184 4.76961ZM9.00184 11.7503C7.48896 11.7503 6.25215 10.5169 6.25215 9C6.25215 7.4831 7.48528 6.24969 9.00184 6.24969C10.5184 6.24969 11.7515 7.4831 11.7515 9C11.7515 10.5169 10.5147 11.7503 9.00184 11.7503ZM14.3908 4.59656C14.3908 5.14515 13.9491 5.58329 13.4043 5.58329C12.8558 5.58329 12.4178 5.14147 12.4178 4.59656C12.4178 4.05166 12.8595 3.60984 13.4043 3.60984C13.9491 3.60984 14.3908 4.05166 14.3908 4.59656ZM17.192 5.59801C17.1294 4.27625 16.8276 3.10543 15.8595 2.1408C14.8951 1.17617 13.7245 0.874261 12.4031 0.807988C11.0411 0.730671 6.9589 0.730671 5.59693 0.807988C4.27914 0.870579 3.10859 1.17249 2.14049 2.13712C1.17239 3.10175 0.874233 4.27256 0.807975 5.59433C0.730675 6.9566 0.730675 11.0397 0.807975 12.402C0.870552 13.7238 1.17239 14.8946 2.14049 15.8592C3.10859 16.8238 4.27546 17.1257 5.59693 17.192C6.9589 17.2693 11.0411 17.2693 12.4031 17.192C13.7245 17.1294 14.8951 16.8275 15.8595 15.8592C16.8239 14.8946 17.1258 13.7238 17.192 12.402C17.2693 11.0397 17.2693 6.96028 17.192 5.59801ZM15.4325 13.8637C15.1454 14.5853 14.5896 15.1412 13.8644 15.4321C12.7785 15.8629 10.2018 15.7635 9.00184 15.7635C7.80184 15.7635 5.22147 15.8592 4.13926 15.4321C3.41779 15.1449 2.86196 14.589 2.57117 13.8637C2.14049 12.7775 2.23988 10.2003 2.23988 9C2.23988 7.79973 2.14417 5.21879 2.57117 4.13634C2.85828 3.41471 3.41411 2.85875 4.13926 2.56789C5.22515 2.13712 7.80184 2.23653 9.00184 2.23653C10.2018 2.23653 12.7822 2.1408 13.8644 2.56789C14.5859 2.85507 15.1417 3.41102 15.4325 4.13634C15.8632 5.22247 15.7638 7.79973 15.7638 9C15.7638 10.2003 15.8632 12.7812 15.4325 13.8637Z" fill="white"/>
</svg>
