<svg width="17" height="17" viewBox="0 0 17 17" fill="none" xmlns="http://www.w3.org/2000/svg">
<path d="M5.25284 14.2486C5.25284 15.492 4.24484 16.5 3.0014 16.5C1.75796 16.5 0.75 15.492 0.75 14.2486C0.75 13.0051 1.758 11.9971 3.00144 11.9971C4.24488 11.9971 5.25284 13.0052 5.25284 14.2486ZM11.4284 15.9097C11.1347 10.4745 6.78126 6.11563 1.34031 5.82162C1.01916 5.80425 0.75 6.0623 0.75 6.38391V8.07383C0.75 8.36967 0.978164 8.61777 1.27337 8.63697C5.20496 8.89305 8.3564 12.0366 8.61301 15.9766C8.63224 16.2718 8.88033 16.5 9.17614 16.5H10.8661C11.1877 16.5 11.4458 16.2309 11.4284 15.9097ZM16.4996 15.9198C16.2045 7.6996 9.59056 1.04691 1.33018 0.750365C1.01272 0.738975 0.75 0.99544 0.75 1.31308V3.00297C0.75 3.30619 0.990293 3.55299 1.29327 3.56543C8.0144 3.84102 13.4091 9.2367 13.6846 15.9568C13.697 16.2598 13.9438 16.5 14.2471 16.5H15.937C16.2546 16.5 16.511 16.2373 16.4996 15.9198Z" fill="white"/>
</svg>
