<svg width="21" height="15" viewBox="0 0 21 15" fill="none" xmlns="http://www.w3.org/2000/svg">
<path d="M20.3432 2.47964C20.1101 1.60201 19.4234 0.910807 18.5514 0.676238C16.9709 0.25 10.6333 0.25 10.6333 0.25C10.6333 0.25 4.29581 0.25 2.71528 0.676238C1.84332 0.910844 1.15658 1.60201 0.923492 2.47964C0.5 4.07041 0.5 7.3894 0.5 7.3894C0.5 7.3894 0.5 10.7084 0.923492 12.2992C1.15658 13.1768 1.84332 13.8392 2.71528 14.0738C4.29581 14.5 10.6333 14.5 10.6333 14.5C10.6333 14.5 16.9709 14.5 18.5514 14.0738C19.4234 13.8392 20.1101 13.1768 20.3432 12.2992C20.7667 10.7084 20.7667 7.3894 20.7667 7.3894C20.7667 7.3894 20.7667 4.07041 20.3432 2.47964ZM8.5606 10.4028V4.37601L13.8576 7.38947L8.5606 10.4028Z" fill="white"/>
</svg>
