<svg width="23" height="18" viewBox="0 0 23 18" fill="none" xmlns="http://www.w3.org/2000/svg">
<path d="M20.6344 4.48592C20.6484 4.68279 20.6484 4.87969 20.6484 5.07656C20.6484 11.0812 16.0782 18 7.72501 18C5.15156 18 2.76095 17.2547 0.75 15.961C1.11564 16.0031 1.46717 16.0172 1.84687 16.0172C3.97028 16.0172 5.92499 15.3 7.48594 14.0766C5.48906 14.0344 3.81561 12.7266 3.23904 10.9266C3.52032 10.9687 3.80155 10.9969 4.09689 10.9969C4.50469 10.9969 4.91253 10.9406 5.29219 10.8422C3.21095 10.4203 1.64996 8.59218 1.64996 6.38437V6.32814C2.25463 6.66564 2.95781 6.87657 3.70307 6.90467C2.47963 6.08902 1.6781 4.69685 1.6781 3.12184C1.6781 2.27811 1.90306 1.50467 2.29683 0.829666C4.53278 3.58591 7.89374 5.38588 11.6624 5.58279C11.5922 5.24529 11.5499 4.89376 11.5499 4.54219C11.5499 2.03904 13.575 0 16.0921 0C17.3999 0 18.5812 0.548436 19.4109 1.43437C20.4374 1.23751 21.4218 0.857802 22.2937 0.337502C21.9562 1.39221 21.239 2.27815 20.2968 2.84061C21.2109 2.74222 22.0968 2.48904 22.9124 2.13752C22.2938 3.03748 21.5203 3.83901 20.6344 4.48592Z" fill="white"/>
</svg>
