<svg width="131" height="33" viewBox="0 0 131 33" fill="none" xmlns="http://www.w3.org/2000/svg">
<path d="M6.29594 32.5995C5.86362 31.7857 5.71952 29.3441 6.04376 28.4528C6.44005 27.2514 7.44879 27.1351 9.06997 28.1427C10.475 29.0341 12.0602 28.9953 13.7174 28.0265C14.7621 27.4452 15.1945 27.3676 15.6988 27.6777C16.0231 27.9102 16.3113 28.2978 16.2753 28.569C16.2392 28.8016 16.2032 29.6542 16.1672 30.468C16.0951 32.7933 15.7349 33.0646 14.0416 32.1345C12.1682 31.1269 10.3669 31.0881 8.5656 32.0957C7.0525 32.9096 6.54812 33.0258 6.29594 32.5995Z" fill="#FFD42A"/>
<path d="M3.8822 22.7557C2.6573 22.2132 1.36035 20.8567 1.36035 20.0816C1.36035 19.074 2.62128 18.0276 3.48591 18.3377C4.45862 18.6477 4.45862 19.3065 3.48591 19.3065C3.05359 19.3065 2.80141 19.5003 2.87346 19.8104C3.16167 20.7017 4.60273 20.5079 6.54815 19.3453C8.63768 18.0276 9.86258 17.8726 10.9073 18.6865C11.5198 19.1515 11.6999 19.1515 12.3124 18.6865C13.4292 17.8726 14.582 18.0276 16.7076 19.3453C18.653 20.5079 20.0941 20.7017 20.3823 19.8104C20.4543 19.5003 20.2021 19.3065 19.7698 19.3065C18.7971 19.3065 18.7971 18.6477 19.7698 18.3377C20.5984 18.0276 21.8954 19.074 21.8954 19.9654C21.8954 20.2754 21.427 21.0118 20.8866 21.6318C19.0853 23.5696 14.6181 23.6471 12.5646 21.7869C11.5558 20.8955 11.5558 20.8955 10.9073 21.6318C9.71847 23.027 5.9357 23.6083 3.8822 22.7557Z" fill="#FFD42A"/>
<path d="M7.05216 13.5321C4.63839 13.1446 0.855626 11.7106 0.243178 10.8968C-0.0810593 10.5092 -0.0810593 10.2379 0.243178 9.88914C0.639467 9.46284 0.855626 9.50159 3.26939 10.5867C3.80979 10.8193 3.88184 10.548 3.88184 7.33132C3.88184 3.26206 4.38621 1.82813 6.04342 0.898014C8.81744 -0.65218 15.3022 -0.109612 17.3197 1.86689C18.3644 2.83576 18.4005 3.02953 18.5806 6.86626C18.7247 10.5092 18.7967 10.8193 19.4092 10.6255C21.1385 10.0442 21.3906 10.0054 21.895 10.3542C22.8317 11.0518 21.3186 12.2144 18.6887 12.8733C15.7345 13.6096 9.75413 13.9196 7.05216 13.5321Z" fill="#FFD42A"/>
<mask id="path-4-inside-1" fill="white">
<path d="M35.9442 22.7368C34.2617 22.7368 32.8632 22.1295 31.7486 20.9149C30.6448 19.7119 30.0929 18.214 30.0929 16.421C30.0929 14.6165 30.6448 13.1185 31.7486 11.9271C32.8632 10.7125 34.2617 10.1052 35.9442 10.1052C36.9623 10.1052 37.9 10.3655 38.7573 10.886C39.6254 11.395 40.3005 12.089 40.7828 12.9682L38.8699 14.1654C38.5912 13.6217 38.1947 13.1995 37.6803 12.8987C37.1659 12.5864 36.5872 12.4303 35.9442 12.4303C34.8511 12.4303 33.967 12.8004 33.2918 13.5407C32.6274 14.2926 32.2952 15.2527 32.2952 16.421C32.2952 17.5778 32.6274 18.5321 33.2918 19.2839C33.967 20.0243 34.8511 20.3944 35.9442 20.3944C36.5872 20.3944 37.1659 20.244 37.6803 19.9433C38.2054 19.631 38.6019 19.2088 38.8699 18.6767L40.7828 19.8739C40.3005 20.753 39.6254 21.4528 38.7573 21.9734C37.9 22.4823 36.9623 22.7368 35.9442 22.7368Z"/>
<path d="M52.1468 20.9149C51.0109 22.1295 49.6284 22.7368 47.9995 22.7368C46.3705 22.7368 44.9881 22.1295 43.8521 20.9149C42.7269 19.6772 42.1642 18.1793 42.1642 16.421C42.1642 14.6512 42.7269 13.159 43.8521 11.9444C44.9881 10.7183 46.3705 10.1052 47.9995 10.1052C49.6284 10.1052 51.0109 10.7183 52.1468 11.9444C53.2828 13.159 53.8508 14.6512 53.8508 16.421C53.8508 18.1908 53.2828 19.6888 52.1468 20.9149ZM45.4114 19.2839C46.0973 20.0243 46.96 20.3944 47.9995 20.3944C49.039 20.3944 49.9017 20.0243 50.5876 19.2839C51.2841 18.5321 51.6324 17.5778 51.6324 16.421C51.6324 15.2643 51.2841 14.31 50.5876 13.5581C49.891 12.8062 49.0283 12.4303 47.9995 12.4303C46.9707 12.4303 46.108 12.8062 45.4114 13.5581C44.7148 14.31 44.3665 15.2643 44.3665 16.421C44.3665 17.5778 44.7148 18.5321 45.4114 19.2839Z"/>
<path d="M56.0529 22.4939V10.3481H58.2713V22.4939H56.0529Z"/>
<path d="M67.5077 17.757V10.3481H69.726V22.4939H68.0381L63.2156 15.0676V22.4939H60.9973V10.3481H62.6851L67.5077 17.757Z"/>
<path d="M77.7933 22.7368C76.1108 22.7368 74.7122 22.1295 73.5977 20.9149C72.4939 19.7119 71.942 18.214 71.942 16.421C71.942 14.6165 72.4939 13.1185 73.5977 11.9271C74.7122 10.7125 76.1108 10.1052 77.7933 10.1052C78.8114 10.1052 79.7491 10.3655 80.6064 10.886C81.4745 11.395 82.1496 12.089 82.6319 12.9682L80.7189 14.1654C80.4403 13.6217 80.0438 13.1995 79.5294 12.8987C79.015 12.5864 78.4363 12.4303 77.7933 12.4303C76.7002 12.4303 75.8161 12.8004 75.1409 13.5407C74.4765 14.2926 74.1443 15.2527 74.1443 16.421C74.1443 17.5778 74.4765 18.5321 75.1409 19.2839C75.8161 20.0243 76.7002 20.3944 77.7933 20.3944C78.4363 20.3944 79.015 20.244 79.5294 19.9433C80.0545 19.631 80.451 19.2088 80.7189 18.6767L82.6319 19.8739C82.1496 20.753 81.4745 21.4528 80.6064 21.9734C79.7491 22.4823 78.8114 22.7368 77.7933 22.7368Z"/>
<path d="M84.6376 22.4939V10.3481H86.856V22.4939H84.6376Z"/>
<path d="M91.8003 17.4794V20.2035H96.5424V22.4939H89.5819V10.3481H96.4621V12.6385H91.8003V15.2238H96.0602V17.4794H91.8003Z"/>
<path d="M107.317 22.4939H104.922L102.655 18.2776H100.967V22.4939H98.7491V10.3481H103.25C104.29 10.3481 105.174 10.7414 105.902 11.528C106.631 12.3146 106.996 13.2631 106.996 14.3736C106.996 15.1255 106.797 15.8253 106.401 16.4731C106.004 17.1093 105.479 17.5893 104.825 17.9132L107.317 22.4939ZM103.25 12.5864H100.967V16.1781H103.25C103.668 16.1781 104.027 16.0046 104.327 15.6576C104.627 15.299 104.777 14.871 104.777 14.3736C104.777 13.8762 104.627 13.454 104.327 13.107C104.027 12.7599 103.668 12.5864 103.25 12.5864Z"/>
<path d="M114.542 15.9699H120.184V16.9068C120.184 18.642 119.67 20.0474 118.641 21.1232C117.612 22.1989 116.283 22.7368 114.654 22.7368C112.918 22.7368 111.477 22.1295 110.33 20.9149C109.194 19.6888 108.626 18.1966 108.626 16.4384C108.626 14.6686 109.189 13.1706 110.314 11.9444C111.45 10.7183 112.854 10.1052 114.526 10.1052C115.565 10.1052 116.519 10.3597 117.387 10.8687C118.255 11.3776 118.936 12.0659 119.429 12.9334L117.532 14.1133C117.264 13.6159 116.857 13.2111 116.31 12.8987C115.764 12.5864 115.164 12.4303 114.51 12.4303C113.427 12.4303 112.543 12.812 111.857 13.5754C111.172 14.3158 110.829 15.2701 110.829 16.4384C110.829 17.5835 111.177 18.5321 111.873 19.2839C112.57 20.0243 113.502 20.3944 114.671 20.3944C115.517 20.3944 116.224 20.192 116.792 19.7871C117.36 19.3823 117.746 18.8155 117.95 18.0867H114.542V15.9699Z"/>
<path d="M124.623 17.4794V20.2035H129.366V22.4939H122.405V10.3481H129.285V12.6385H124.623V15.2238H128.883V17.4794H124.623Z"/>
</mask>
<path d="M35.9442 22.7368C34.2617 22.7368 32.8632 22.1295 31.7486 20.9149C30.6448 19.7119 30.0929 18.214 30.0929 16.421C30.0929 14.6165 30.6448 13.1185 31.7486 11.9271C32.8632 10.7125 34.2617 10.1052 35.9442 10.1052C36.9623 10.1052 37.9 10.3655 38.7573 10.886C39.6254 11.395 40.3005 12.089 40.7828 12.9682L38.8699 14.1654C38.5912 13.6217 38.1947 13.1995 37.6803 12.8987C37.1659 12.5864 36.5872 12.4303 35.9442 12.4303C34.8511 12.4303 33.967 12.8004 33.2918 13.5407C32.6274 14.2926 32.2952 15.2527 32.2952 16.421C32.2952 17.5778 32.6274 18.5321 33.2918 19.2839C33.967 20.0243 34.8511 20.3944 35.9442 20.3944C36.5872 20.3944 37.1659 20.244 37.6803 19.9433C38.2054 19.631 38.6019 19.2088 38.8699 18.6767L40.7828 19.8739C40.3005 20.753 39.6254 21.4528 38.7573 21.9734C37.9 22.4823 36.9623 22.7368 35.9442 22.7368Z" fill="#F9F8FF"/>
<path d="M52.1468 20.9149C51.0109 22.1295 49.6284 22.7368 47.9995 22.7368C46.3705 22.7368 44.9881 22.1295 43.8521 20.9149C42.7269 19.6772 42.1642 18.1793 42.1642 16.421C42.1642 14.6512 42.7269 13.159 43.8521 11.9444C44.9881 10.7183 46.3705 10.1052 47.9995 10.1052C49.6284 10.1052 51.0109 10.7183 52.1468 11.9444C53.2828 13.159 53.8508 14.6512 53.8508 16.421C53.8508 18.1908 53.2828 19.6888 52.1468 20.9149ZM45.4114 19.2839C46.0973 20.0243 46.96 20.3944 47.9995 20.3944C49.039 20.3944 49.9017 20.0243 50.5876 19.2839C51.2841 18.5321 51.6324 17.5778 51.6324 16.421C51.6324 15.2643 51.2841 14.31 50.5876 13.5581C49.891 12.8062 49.0283 12.4303 47.9995 12.4303C46.9707 12.4303 46.108 12.8062 45.4114 13.5581C44.7148 14.31 44.3665 15.2643 44.3665 16.421C44.3665 17.5778 44.7148 18.5321 45.4114 19.2839Z" fill="#F9F8FF"/>
<path d="M56.0529 22.4939V10.3481H58.2713V22.4939H56.0529Z" fill="#F9F8FF"/>
<path d="M67.5077 17.757V10.3481H69.726V22.4939H68.0381L63.2156 15.0676V22.4939H60.9973V10.3481H62.6851L67.5077 17.757Z" fill="#F9F8FF"/>
<path d="M77.7933 22.7368C76.1108 22.7368 74.7122 22.1295 73.5977 20.9149C72.4939 19.7119 71.942 18.214 71.942 16.421C71.942 14.6165 72.4939 13.1185 73.5977 11.9271C74.7122 10.7125 76.1108 10.1052 77.7933 10.1052C78.8114 10.1052 79.7491 10.3655 80.6064 10.886C81.4745 11.395 82.1496 12.089 82.6319 12.9682L80.7189 14.1654C80.4403 13.6217 80.0438 13.1995 79.5294 12.8987C79.015 12.5864 78.4363 12.4303 77.7933 12.4303C76.7002 12.4303 75.8161 12.8004 75.1409 13.5407C74.4765 14.2926 74.1443 15.2527 74.1443 16.421C74.1443 17.5778 74.4765 18.5321 75.1409 19.2839C75.8161 20.0243 76.7002 20.3944 77.7933 20.3944C78.4363 20.3944 79.015 20.244 79.5294 19.9433C80.0545 19.631 80.451 19.2088 80.7189 18.6767L82.6319 19.8739C82.1496 20.753 81.4745 21.4528 80.6064 21.9734C79.7491 22.4823 78.8114 22.7368 77.7933 22.7368Z" fill="#F9F8FF"/>
<path d="M84.6376 22.4939V10.3481H86.856V22.4939H84.6376Z" fill="#F9F8FF"/>
<path d="M91.8003 17.4794V20.2035H96.5424V22.4939H89.5819V10.3481H96.4621V12.6385H91.8003V15.2238H96.0602V17.4794H91.8003Z" fill="#F9F8FF"/>
<path d="M107.317 22.4939H104.922L102.655 18.2776H100.967V22.4939H98.7491V10.3481H103.25C104.29 10.3481 105.174 10.7414 105.902 11.528C106.631 12.3146 106.996 13.2631 106.996 14.3736C106.996 15.1255 106.797 15.8253 106.401 16.4731C106.004 17.1093 105.479 17.5893 104.825 17.9132L107.317 22.4939ZM103.25 12.5864H100.967V16.1781H103.25C103.668 16.1781 104.027 16.0046 104.327 15.6576C104.627 15.299 104.777 14.871 104.777 14.3736C104.777 13.8762 104.627 13.454 104.327 13.107C104.027 12.7599 103.668 12.5864 103.25 12.5864Z" fill="#F9F8FF"/>
<path d="M114.542 15.9699H120.184V16.9068C120.184 18.642 119.67 20.0474 118.641 21.1232C117.612 22.1989 116.283 22.7368 114.654 22.7368C112.918 22.7368 111.477 22.1295 110.33 20.9149C109.194 19.6888 108.626 18.1966 108.626 16.4384C108.626 14.6686 109.189 13.1706 110.314 11.9444C111.45 10.7183 112.854 10.1052 114.526 10.1052C115.565 10.1052 116.519 10.3597 117.387 10.8687C118.255 11.3776 118.936 12.0659 119.429 12.9334L117.532 14.1133C117.264 13.6159 116.857 13.2111 116.31 12.8987C115.764 12.5864 115.164 12.4303 114.51 12.4303C113.427 12.4303 112.543 12.812 111.857 13.5754C111.172 14.3158 110.829 15.2701 110.829 16.4384C110.829 17.5835 111.177 18.5321 111.873 19.2839C112.57 20.0243 113.502 20.3944 114.671 20.3944C115.517 20.3944 116.224 20.192 116.792 19.7871C117.36 19.3823 117.746 18.8155 117.95 18.0867H114.542V15.9699Z" fill="#F9F8FF"/>
<path d="M124.623 17.4794V20.2035H129.366V22.4939H122.405V10.3481H129.285V12.6385H124.623V15.2238H128.883V17.4794H124.623Z" fill="#F9F8FF"/>
<path d="M35.9442 22.7368C34.2617 22.7368 32.8632 22.1295 31.7486 20.9149C30.6448 19.7119 30.0929 18.214 30.0929 16.421C30.0929 14.6165 30.6448 13.1185 31.7486 11.9271C32.8632 10.7125 34.2617 10.1052 35.9442 10.1052C36.9623 10.1052 37.9 10.3655 38.7573 10.886C39.6254 11.395 40.3005 12.089 40.7828 12.9682L38.8699 14.1654C38.5912 13.6217 38.1947 13.1995 37.6803 12.8987C37.1659 12.5864 36.5872 12.4303 35.9442 12.4303C34.8511 12.4303 33.967 12.8004 33.2918 13.5407C32.6274 14.2926 32.2952 15.2527 32.2952 16.421C32.2952 17.5778 32.6274 18.5321 33.2918 19.2839C33.967 20.0243 34.8511 20.3944 35.9442 20.3944C36.5872 20.3944 37.1659 20.244 37.6803 19.9433C38.2054 19.631 38.6019 19.2088 38.8699 18.6767L40.7828 19.8739C40.3005 20.753 39.6254 21.4528 38.7573 21.9734C37.9 22.4823 36.9623 22.7368 35.9442 22.7368Z" stroke="white" strokeWidth="0.2" mask="url(#path-4-inside-1)"/>
<path d="M52.1468 20.9149C51.0109 22.1295 49.6284 22.7368 47.9995 22.7368C46.3705 22.7368 44.9881 22.1295 43.8521 20.9149C42.7269 19.6772 42.1642 18.1793 42.1642 16.421C42.1642 14.6512 42.7269 13.159 43.8521 11.9444C44.9881 10.7183 46.3705 10.1052 47.9995 10.1052C49.6284 10.1052 51.0109 10.7183 52.1468 11.9444C53.2828 13.159 53.8508 14.6512 53.8508 16.421C53.8508 18.1908 53.2828 19.6888 52.1468 20.9149ZM45.4114 19.2839C46.0973 20.0243 46.96 20.3944 47.9995 20.3944C49.039 20.3944 49.9017 20.0243 50.5876 19.2839C51.2841 18.5321 51.6324 17.5778 51.6324 16.421C51.6324 15.2643 51.2841 14.31 50.5876 13.5581C49.891 12.8062 49.0283 12.4303 47.9995 12.4303C46.9707 12.4303 46.108 12.8062 45.4114 13.5581C44.7148 14.31 44.3665 15.2643 44.3665 16.421C44.3665 17.5778 44.7148 18.5321 45.4114 19.2839Z" stroke="white" strokeWidth="0.2" mask="url(#path-4-inside-1)"/>
<path d="M56.0529 22.4939V10.3481H58.2713V22.4939H56.0529Z" stroke="white" strokeWidth="0.2" mask="url(#path-4-inside-1)"/>
<path d="M67.5077 17.757V10.3481H69.726V22.4939H68.0381L63.2156 15.0676V22.4939H60.9973V10.3481H62.6851L67.5077 17.757Z" stroke="white" strokeWidth="0.2" mask="url(#path-4-inside-1)"/>
<path d="M77.7933 22.7368C76.1108 22.7368 74.7122 22.1295 73.5977 20.9149C72.4939 19.7119 71.942 18.214 71.942 16.421C71.942 14.6165 72.4939 13.1185 73.5977 11.9271C74.7122 10.7125 76.1108 10.1052 77.7933 10.1052C78.8114 10.1052 79.7491 10.3655 80.6064 10.886C81.4745 11.395 82.1496 12.089 82.6319 12.9682L80.7189 14.1654C80.4403 13.6217 80.0438 13.1995 79.5294 12.8987C79.015 12.5864 78.4363 12.4303 77.7933 12.4303C76.7002 12.4303 75.8161 12.8004 75.1409 13.5407C74.4765 14.2926 74.1443 15.2527 74.1443 16.421C74.1443 17.5778 74.4765 18.5321 75.1409 19.2839C75.8161 20.0243 76.7002 20.3944 77.7933 20.3944C78.4363 20.3944 79.015 20.244 79.5294 19.9433C80.0545 19.631 80.451 19.2088 80.7189 18.6767L82.6319 19.8739C82.1496 20.753 81.4745 21.4528 80.6064 21.9734C79.7491 22.4823 78.8114 22.7368 77.7933 22.7368Z" stroke="white" strokeWidth="0.2" mask="url(#path-4-inside-1)"/>
<path d="M84.6376 22.4939V10.3481H86.856V22.4939H84.6376Z" stroke="white" strokeWidth="0.2" mask="url(#path-4-inside-1)"/>
<path d="M91.8003 17.4794V20.2035H96.5424V22.4939H89.5819V10.3481H96.4621V12.6385H91.8003V15.2238H96.0602V17.4794H91.8003Z" stroke="white" strokeWidth="0.2" mask="url(#path-4-inside-1)"/>
<path d="M107.317 22.4939H104.922L102.655 18.2776H100.967V22.4939H98.7491V10.3481H103.25C104.29 10.3481 105.174 10.7414 105.902 11.528C106.631 12.3146 106.996 13.2631 106.996 14.3736C106.996 15.1255 106.797 15.8253 106.401 16.4731C106.004 17.1093 105.479 17.5893 104.825 17.9132L107.317 22.4939ZM103.25 12.5864H100.967V16.1781H103.25C103.668 16.1781 104.027 16.0046 104.327 15.6576C104.627 15.299 104.777 14.871 104.777 14.3736C104.777 13.8762 104.627 13.454 104.327 13.107C104.027 12.7599 103.668 12.5864 103.25 12.5864Z" stroke="white" strokeWidth="0.2" mask="url(#path-4-inside-1)"/>
<path d="M114.542 15.9699H120.184V16.9068C120.184 18.642 119.67 20.0474 118.641 21.1232C117.612 22.1989 116.283 22.7368 114.654 22.7368C112.918 22.7368 111.477 22.1295 110.33 20.9149C109.194 19.6888 108.626 18.1966 108.626 16.4384C108.626 14.6686 109.189 13.1706 110.314 11.9444C111.45 10.7183 112.854 10.1052 114.526 10.1052C115.565 10.1052 116.519 10.3597 117.387 10.8687C118.255 11.3776 118.936 12.0659 119.429 12.9334L117.532 14.1133C117.264 13.6159 116.857 13.2111 116.31 12.8987C115.764 12.5864 115.164 12.4303 114.51 12.4303C113.427 12.4303 112.543 12.812 111.857 13.5754C111.172 14.3158 110.829 15.2701 110.829 16.4384C110.829 17.5835 111.177 18.5321 111.873 19.2839C112.57 20.0243 113.502 20.3944 114.671 20.3944C115.517 20.3944 116.224 20.192 116.792 19.7871C117.36 19.3823 117.746 18.8155 117.95 18.0867H114.542V15.9699Z" stroke="white" strokeWidth="0.2" mask="url(#path-4-inside-1)"/>
<path d="M124.623 17.4794V20.2035H129.366V22.4939H122.405V10.3481H129.285V12.6385H124.623V15.2238H128.883V17.4794H124.623Z" stroke="white" strokeWidth="0.2" mask="url(#path-4-inside-1)"/>
</svg>
