<svg width="147" height="37" viewBox="0 0 147 37" fill="none" xmlns="http://www.w3.org/2000/svg">
<path d="M7.07365 36.6745C6.58793 35.7589 6.42602 33.0122 6.79031 32.0094C7.23555 30.6578 8.3689 30.527 10.1903 31.6606C11.7689 32.6634 13.5499 32.6198 15.4118 31.5298C16.5856 30.8758 17.0714 30.7886 17.638 31.1374C18.0023 31.399 18.3261 31.835 18.2856 32.1402C18.2452 32.4018 18.2047 33.361 18.1642 34.2766C18.0833 36.8925 17.6785 37.1977 15.7761 36.1513C13.6713 35.0178 11.6475 34.9742 9.62367 36.1077C7.92366 37.0233 7.35698 37.1541 7.07365 36.6745Z" fill="#FFD42A"/>
<path d="M4.36168 25.6001C2.98547 24.9897 1.52832 23.4637 1.52832 22.5918C1.52832 21.4582 2.945 20.281 3.91643 20.6298C5.0093 20.9786 5.0093 21.7198 3.91643 21.7198C3.43072 21.7198 3.14738 21.9378 3.22833 22.2866C3.55214 23.2893 5.17121 23.0713 7.35694 21.7634C9.70457 20.281 11.0808 20.1066 12.2546 21.0222C12.9427 21.5454 13.1451 21.5454 13.8332 21.0222C15.0879 20.1066 16.3832 20.281 18.7713 21.7634C20.957 23.0713 22.5761 23.2893 22.8999 22.2866C22.9809 21.9378 22.6975 21.7198 22.2118 21.7198C21.1189 21.7198 21.1189 20.9786 22.2118 20.6298C23.1428 20.281 24.5999 21.4582 24.5999 22.461C24.5999 22.8097 24.0737 23.6381 23.4666 24.3357C21.4428 26.5157 16.4237 26.6029 14.1165 24.5101C12.9832 23.5073 12.9832 23.5073 12.2546 24.3357C10.9189 25.9053 6.66884 26.5593 4.36168 25.6001Z" fill="#FFD42A"/>
<path d="M7.92327 15.2236C5.21134 14.7876 0.961316 13.1744 0.273216 12.2589C-0.0910721 11.8229 -0.0910721 11.5177 0.273216 11.1253C0.718457 10.6457 0.961317 10.6893 3.67324 11.9101C4.28039 12.1717 4.36134 11.8665 4.36134 8.24774C4.36134 3.66982 4.92801 2.05665 6.78993 1.01027C9.90661 -0.733703 17.1924 -0.123313 19.4591 2.10025C20.6329 3.19023 20.6734 3.40822 20.8757 7.72455C21.0376 11.8229 21.1186 12.1717 21.8067 11.9537C23.7496 11.2997 24.0329 11.2561 24.5996 11.6485C25.652 12.4333 23.9519 13.7412 20.9972 14.4824C17.6781 15.3108 10.959 15.6596 7.92327 15.2236Z" fill="#FFD42A"/>
<mask id="path-4-inside-1" fill="white">
<path d="M40.3843 25.5789C38.4939 25.5789 36.9226 24.8957 35.6704 23.5293C34.4303 22.176 33.8102 20.4907 33.8102 18.4737C33.8102 16.4436 34.4303 14.7584 35.6704 13.418C36.9226 12.0516 38.4939 11.3684 40.3843 11.3684C41.5281 11.3684 42.5817 11.6612 43.5449 12.2468C44.5202 12.8194 45.2787 13.6002 45.8205 14.5892L43.6713 15.9361C43.3583 15.3245 42.9128 14.8495 42.3348 14.5111C41.7569 14.1598 41.1067 13.9841 40.3843 13.9841C39.1561 13.9841 38.1628 14.4005 37.4043 15.2334C36.6577 16.0792 36.2845 17.1593 36.2845 18.4737C36.2845 19.775 36.6577 20.8486 37.4043 21.6945C38.1628 22.5273 39.1561 22.9437 40.3843 22.9437C41.1067 22.9437 41.7569 22.7746 42.3348 22.4362C42.9248 22.0849 43.3703 21.6099 43.6713 21.0113L45.8205 22.3581C45.2787 23.3472 44.5202 24.1345 43.5449 24.7201C42.5817 25.2926 41.5281 25.5789 40.3843 25.5789Z"/>
<path d="M58.5883 23.5293C57.312 24.8957 55.7588 25.5789 53.9287 25.5789C52.0985 25.5789 50.5453 24.8957 49.269 23.5293C48.0048 22.1369 47.3726 20.4517 47.3726 18.4737C47.3726 16.4826 48.0048 14.8039 49.269 13.4375C50.5453 12.0581 52.0985 11.3684 53.9287 11.3684C55.7588 11.3684 57.312 12.0581 58.5883 13.4375C59.8646 14.8039 60.5027 16.4826 60.5027 18.4737C60.5027 20.4647 59.8646 22.1499 58.5883 23.5293ZM51.0209 21.6945C51.7915 22.5273 52.7607 22.9437 53.9287 22.9437C55.0966 22.9437 56.0658 22.5273 56.8364 21.6945C57.6191 20.8486 58.0104 19.775 58.0104 18.4737C58.0104 17.1723 57.6191 16.0987 56.8364 15.2529C56.0538 14.407 55.0845 13.9841 53.9287 13.9841C52.7728 13.9841 51.8035 14.407 51.0209 15.2529C50.2383 16.0987 49.8469 17.1723 49.8469 18.4737C49.8469 19.775 50.2383 20.8486 51.0209 21.6945Z"/>
<path d="M62.9769 25.3057V11.6417H65.4693V25.3057H62.9769Z"/>
<path d="M75.8466 19.9767V11.6417H78.3389V25.3057H76.4426L71.0244 16.9511V25.3057H68.532V11.6417H70.4284L75.8466 19.9767Z"/>
<path d="M87.4027 25.5789C85.5124 25.5789 83.9411 24.8957 82.6889 23.5293C81.4487 22.176 80.8286 20.4907 80.8286 18.4737C80.8286 16.4436 81.4487 14.7584 82.6889 13.418C83.9411 12.0516 85.5124 11.3684 87.4027 11.3684C88.5466 11.3684 89.6001 11.6612 90.5633 12.2468C91.5386 12.8194 92.2972 13.6002 92.839 14.5892L90.6898 15.9361C90.3767 15.3245 89.9312 14.8495 89.3533 14.5111C88.7753 14.1598 88.1252 13.9841 87.4027 13.9841C86.1746 13.9841 85.1813 14.4005 84.4227 15.2334C83.6762 16.0792 83.303 17.1593 83.303 18.4737C83.303 19.775 83.6762 20.8486 84.4227 21.6945C85.1813 22.5273 86.1746 22.9437 87.4027 22.9437C88.1252 22.9437 88.7753 22.7746 89.3533 22.4362C89.9433 22.0849 90.3888 21.6099 90.6898 21.0113L92.839 22.3581C92.2972 23.3472 91.5386 24.1345 90.5633 24.7201C89.6001 25.2926 88.5466 25.5789 87.4027 25.5789Z"/>
<path d="M95.0925 25.3057V11.6417H97.5849V25.3057H95.0925Z"/>
<path d="M103.14 19.6644V22.729H108.468V25.3057H100.648V11.6417H108.378V14.2183H103.14V17.1268H107.926V19.6644H103.14Z"/>
<path d="M120.573 25.3057H117.882L115.336 20.5623H113.439V25.3057H110.947V11.6417H116.004C117.172 11.6417 118.165 12.0841 118.984 12.969C119.803 13.854 120.212 14.921 120.212 16.1703C120.212 17.0162 119.989 17.8035 119.544 18.5322C119.098 19.248 118.508 19.788 117.774 20.1524L120.573 25.3057ZM116.004 14.1598H113.439V18.2004H116.004C116.474 18.2004 116.877 18.0052 117.214 17.6148C117.551 17.2114 117.72 16.7299 117.72 16.1703C117.72 15.6107 117.551 15.1358 117.214 14.7454C116.877 14.355 116.474 14.1598 116.004 14.1598Z"/>
<path d="M128.691 17.9662H135.03V19.0202C135.03 20.9722 134.452 22.5533 133.296 23.7636C132.14 24.9738 130.647 25.5789 128.817 25.5789C126.867 25.5789 125.247 24.8957 123.959 23.5293C122.683 22.1499 122.044 20.4712 122.044 18.4932C122.044 16.5022 122.677 14.8169 123.941 13.4375C125.217 12.0581 126.794 11.3684 128.673 11.3684C129.841 11.3684 130.912 11.6547 131.887 12.2273C132.863 12.7999 133.627 13.5742 134.181 14.5502L132.05 15.8775C131.749 15.3179 131.291 14.8625 130.677 14.5111C130.063 14.1598 129.389 13.9841 128.655 13.9841C127.439 13.9841 126.445 14.4135 125.675 15.2724C124.904 16.1053 124.519 17.1788 124.519 18.4932C124.519 19.7815 124.91 20.8486 125.693 21.6945C126.475 22.5273 127.523 22.9437 128.835 22.9437C129.786 22.9437 130.581 22.716 131.219 22.2605C131.857 21.8051 132.291 21.1674 132.52 20.3476H128.691V17.9662Z"/>
<path d="M140.018 19.6644V22.729H145.345V25.3057H137.525V11.6417H145.255V14.2183H140.018V17.1268H144.804V19.6644H140.018Z"/>
</mask>
<path d="M40.3843 25.5789C38.4939 25.5789 36.9226 24.8957 35.6704 23.5293C34.4303 22.176 33.8102 20.4907 33.8102 18.4737C33.8102 16.4436 34.4303 14.7584 35.6704 13.418C36.9226 12.0516 38.4939 11.3684 40.3843 11.3684C41.5281 11.3684 42.5817 11.6612 43.5449 12.2468C44.5202 12.8194 45.2787 13.6002 45.8205 14.5892L43.6713 15.9361C43.3583 15.3245 42.9128 14.8495 42.3348 14.5111C41.7569 14.1598 41.1067 13.9841 40.3843 13.9841C39.1561 13.9841 38.1628 14.4005 37.4043 15.2334C36.6577 16.0792 36.2845 17.1593 36.2845 18.4737C36.2845 19.775 36.6577 20.8486 37.4043 21.6945C38.1628 22.5273 39.1561 22.9437 40.3843 22.9437C41.1067 22.9437 41.7569 22.7746 42.3348 22.4362C42.9248 22.0849 43.3703 21.6099 43.6713 21.0113L45.8205 22.3581C45.2787 23.3472 44.5202 24.1345 43.5449 24.7201C42.5817 25.2926 41.5281 25.5789 40.3843 25.5789Z" fill="#F9F8FF"/>
<path d="M58.5883 23.5293C57.312 24.8957 55.7588 25.5789 53.9287 25.5789C52.0985 25.5789 50.5453 24.8957 49.269 23.5293C48.0048 22.1369 47.3726 20.4517 47.3726 18.4737C47.3726 16.4826 48.0048 14.8039 49.269 13.4375C50.5453 12.0581 52.0985 11.3684 53.9287 11.3684C55.7588 11.3684 57.312 12.0581 58.5883 13.4375C59.8646 14.8039 60.5027 16.4826 60.5027 18.4737C60.5027 20.4647 59.8646 22.1499 58.5883 23.5293ZM51.0209 21.6945C51.7915 22.5273 52.7607 22.9437 53.9287 22.9437C55.0966 22.9437 56.0658 22.5273 56.8364 21.6945C57.6191 20.8486 58.0104 19.775 58.0104 18.4737C58.0104 17.1723 57.6191 16.0987 56.8364 15.2529C56.0538 14.407 55.0845 13.9841 53.9287 13.9841C52.7728 13.9841 51.8035 14.407 51.0209 15.2529C50.2383 16.0987 49.8469 17.1723 49.8469 18.4737C49.8469 19.775 50.2383 20.8486 51.0209 21.6945Z" fill="#F9F8FF"/>
<path d="M62.9769 25.3057V11.6417H65.4693V25.3057H62.9769Z" fill="#F9F8FF"/>
<path d="M75.8466 19.9767V11.6417H78.3389V25.3057H76.4426L71.0244 16.9511V25.3057H68.532V11.6417H70.4284L75.8466 19.9767Z" fill="#F9F8FF"/>
<path d="M87.4027 25.5789C85.5124 25.5789 83.9411 24.8957 82.6889 23.5293C81.4487 22.176 80.8286 20.4907 80.8286 18.4737C80.8286 16.4436 81.4487 14.7584 82.6889 13.418C83.9411 12.0516 85.5124 11.3684 87.4027 11.3684C88.5466 11.3684 89.6001 11.6612 90.5633 12.2468C91.5386 12.8194 92.2972 13.6002 92.839 14.5892L90.6898 15.9361C90.3767 15.3245 89.9312 14.8495 89.3533 14.5111C88.7753 14.1598 88.1252 13.9841 87.4027 13.9841C86.1746 13.9841 85.1813 14.4005 84.4227 15.2334C83.6762 16.0792 83.303 17.1593 83.303 18.4737C83.303 19.775 83.6762 20.8486 84.4227 21.6945C85.1813 22.5273 86.1746 22.9437 87.4027 22.9437C88.1252 22.9437 88.7753 22.7746 89.3533 22.4362C89.9433 22.0849 90.3888 21.6099 90.6898 21.0113L92.839 22.3581C92.2972 23.3472 91.5386 24.1345 90.5633 24.7201C89.6001 25.2926 88.5466 25.5789 87.4027 25.5789Z" fill="#F9F8FF"/>
<path d="M95.0925 25.3057V11.6417H97.5849V25.3057H95.0925Z" fill="#F9F8FF"/>
<path d="M103.14 19.6644V22.729H108.468V25.3057H100.648V11.6417H108.378V14.2183H103.14V17.1268H107.926V19.6644H103.14Z" fill="#F9F8FF"/>
<path d="M120.573 25.3057H117.882L115.336 20.5623H113.439V25.3057H110.947V11.6417H116.004C117.172 11.6417 118.165 12.0841 118.984 12.969C119.803 13.854 120.212 14.921 120.212 16.1703C120.212 17.0162 119.989 17.8035 119.544 18.5322C119.098 19.248 118.508 19.788 117.774 20.1524L120.573 25.3057ZM116.004 14.1598H113.439V18.2004H116.004C116.474 18.2004 116.877 18.0052 117.214 17.6148C117.551 17.2114 117.72 16.7299 117.72 16.1703C117.72 15.6107 117.551 15.1358 117.214 14.7454C116.877 14.355 116.474 14.1598 116.004 14.1598Z" fill="#F9F8FF"/>
<path d="M128.691 17.9662H135.03V19.0202C135.03 20.9722 134.452 22.5533 133.296 23.7636C132.14 24.9738 130.647 25.5789 128.817 25.5789C126.867 25.5789 125.247 24.8957 123.959 23.5293C122.683 22.1499 122.044 20.4712 122.044 18.4932C122.044 16.5022 122.677 14.8169 123.941 13.4375C125.217 12.0581 126.794 11.3684 128.673 11.3684C129.841 11.3684 130.912 11.6547 131.887 12.2273C132.863 12.7999 133.627 13.5742 134.181 14.5502L132.05 15.8775C131.749 15.3179 131.291 14.8625 130.677 14.5111C130.063 14.1598 129.389 13.9841 128.655 13.9841C127.439 13.9841 126.445 14.4135 125.675 15.2724C124.904 16.1053 124.519 17.1788 124.519 18.4932C124.519 19.7815 124.91 20.8486 125.693 21.6945C126.475 22.5273 127.523 22.9437 128.835 22.9437C129.786 22.9437 130.581 22.716 131.219 22.2605C131.857 21.8051 132.291 21.1674 132.52 20.3476H128.691V17.9662Z" fill="#F9F8FF"/>
<path d="M140.018 19.6644V22.729H145.345V25.3057H137.525V11.6417H145.255V14.2183H140.018V17.1268H144.804V19.6644H140.018Z" fill="#F9F8FF"/>
<path d="M40.3843 25.5789C38.4939 25.5789 36.9226 24.8957 35.6704 23.5293C34.4303 22.176 33.8102 20.4907 33.8102 18.4737C33.8102 16.4436 34.4303 14.7584 35.6704 13.418C36.9226 12.0516 38.4939 11.3684 40.3843 11.3684C41.5281 11.3684 42.5817 11.6612 43.5449 12.2468C44.5202 12.8194 45.2787 13.6002 45.8205 14.5892L43.6713 15.9361C43.3583 15.3245 42.9128 14.8495 42.3348 14.5111C41.7569 14.1598 41.1067 13.9841 40.3843 13.9841C39.1561 13.9841 38.1628 14.4005 37.4043 15.2334C36.6577 16.0792 36.2845 17.1593 36.2845 18.4737C36.2845 19.775 36.6577 20.8486 37.4043 21.6945C38.1628 22.5273 39.1561 22.9437 40.3843 22.9437C41.1067 22.9437 41.7569 22.7746 42.3348 22.4362C42.9248 22.0849 43.3703 21.6099 43.6713 21.0113L45.8205 22.3581C45.2787 23.3472 44.5202 24.1345 43.5449 24.7201C42.5817 25.2926 41.5281 25.5789 40.3843 25.5789Z" stroke="white" strokeWidth="0.2" mask="url(#path-4-inside-1)"/>
<path d="M58.5883 23.5293C57.312 24.8957 55.7588 25.5789 53.9287 25.5789C52.0985 25.5789 50.5453 24.8957 49.269 23.5293C48.0048 22.1369 47.3726 20.4517 47.3726 18.4737C47.3726 16.4826 48.0048 14.8039 49.269 13.4375C50.5453 12.0581 52.0985 11.3684 53.9287 11.3684C55.7588 11.3684 57.312 12.0581 58.5883 13.4375C59.8646 14.8039 60.5027 16.4826 60.5027 18.4737C60.5027 20.4647 59.8646 22.1499 58.5883 23.5293ZM51.0209 21.6945C51.7915 22.5273 52.7607 22.9437 53.9287 22.9437C55.0966 22.9437 56.0658 22.5273 56.8364 21.6945C57.6191 20.8486 58.0104 19.775 58.0104 18.4737C58.0104 17.1723 57.6191 16.0987 56.8364 15.2529C56.0538 14.407 55.0845 13.9841 53.9287 13.9841C52.7728 13.9841 51.8035 14.407 51.0209 15.2529C50.2383 16.0987 49.8469 17.1723 49.8469 18.4737C49.8469 19.775 50.2383 20.8486 51.0209 21.6945Z" stroke="white" strokeWidth="0.2" mask="url(#path-4-inside-1)"/>
<path d="M62.9769 25.3057V11.6417H65.4693V25.3057H62.9769Z" stroke="white" strokeWidth="0.2" mask="url(#path-4-inside-1)"/>
<path d="M75.8466 19.9767V11.6417H78.3389V25.3057H76.4426L71.0244 16.9511V25.3057H68.532V11.6417H70.4284L75.8466 19.9767Z" stroke="white" strokeWidth="0.2" mask="url(#path-4-inside-1)"/>
<path d="M87.4027 25.5789C85.5124 25.5789 83.9411 24.8957 82.6889 23.5293C81.4487 22.176 80.8286 20.4907 80.8286 18.4737C80.8286 16.4436 81.4487 14.7584 82.6889 13.418C83.9411 12.0516 85.5124 11.3684 87.4027 11.3684C88.5466 11.3684 89.6001 11.6612 90.5633 12.2468C91.5386 12.8194 92.2972 13.6002 92.839 14.5892L90.6898 15.9361C90.3767 15.3245 89.9312 14.8495 89.3533 14.5111C88.7753 14.1598 88.1252 13.9841 87.4027 13.9841C86.1746 13.9841 85.1813 14.4005 84.4227 15.2334C83.6762 16.0792 83.303 17.1593 83.303 18.4737C83.303 19.775 83.6762 20.8486 84.4227 21.6945C85.1813 22.5273 86.1746 22.9437 87.4027 22.9437C88.1252 22.9437 88.7753 22.7746 89.3533 22.4362C89.9433 22.0849 90.3888 21.6099 90.6898 21.0113L92.839 22.3581C92.2972 23.3472 91.5386 24.1345 90.5633 24.7201C89.6001 25.2926 88.5466 25.5789 87.4027 25.5789Z" stroke="white" strokeWidth="0.2" mask="url(#path-4-inside-1)"/>
<path d="M95.0925 25.3057V11.6417H97.5849V25.3057H95.0925Z" stroke="white" strokeWidth="0.2" mask="url(#path-4-inside-1)"/>
<path d="M103.14 19.6644V22.729H108.468V25.3057H100.648V11.6417H108.378V14.2183H103.14V17.1268H107.926V19.6644H103.14Z" stroke="white" strokeWidth="0.2" mask="url(#path-4-inside-1)"/>
<path d="M120.573 25.3057H117.882L115.336 20.5623H113.439V25.3057H110.947V11.6417H116.004C117.172 11.6417 118.165 12.0841 118.984 12.969C119.803 13.854 120.212 14.921 120.212 16.1703C120.212 17.0162 119.989 17.8035 119.544 18.5322C119.098 19.248 118.508 19.788 117.774 20.1524L120.573 25.3057ZM116.004 14.1598H113.439V18.2004H116.004C116.474 18.2004 116.877 18.0052 117.214 17.6148C117.551 17.2114 117.72 16.7299 117.72 16.1703C117.72 15.6107 117.551 15.1358 117.214 14.7454C116.877 14.355 116.474 14.1598 116.004 14.1598Z" stroke="white" strokeWidth="0.2" mask="url(#path-4-inside-1)"/>
<path d="M128.691 17.9662H135.03V19.0202C135.03 20.9722 134.452 22.5533 133.296 23.7636C132.14 24.9738 130.647 25.5789 128.817 25.5789C126.867 25.5789 125.247 24.8957 123.959 23.5293C122.683 22.1499 122.044 20.4712 122.044 18.4932C122.044 16.5022 122.677 14.8169 123.941 13.4375C125.217 12.0581 126.794 11.3684 128.673 11.3684C129.841 11.3684 130.912 11.6547 131.887 12.2273C132.863 12.7999 133.627 13.5742 134.181 14.5502L132.05 15.8775C131.749 15.3179 131.291 14.8625 130.677 14.5111C130.063 14.1598 129.389 13.9841 128.655 13.9841C127.439 13.9841 126.445 14.4135 125.675 15.2724C124.904 16.1053 124.519 17.1788 124.519 18.4932C124.519 19.7815 124.91 20.8486 125.693 21.6945C126.475 22.5273 127.523 22.9437 128.835 22.9437C129.786 22.9437 130.581 22.716 131.219 22.2605C131.857 21.8051 132.291 21.1674 132.52 20.3476H128.691V17.9662Z" stroke="white" strokeWidth="0.2" mask="url(#path-4-inside-1)"/>
<path d="M140.018 19.6644V22.729H145.345V25.3057H137.525V11.6417H145.255V14.2183H140.018V17.1268H144.804V19.6644H140.018Z" stroke="white" strokeWidth="0.2" mask="url(#path-4-inside-1)"/>
</svg>
